<svg className="dhlab-logo-b" viewBox="0 0 217.5 228.5" width="200" height="200">
  <path fill-rule="evenodd" stroke="none" stroke-linecap="butt" stroke-linejoin="miter"
    d="M98.582,226.515 C94.543,226.515 87.942,226.295 78.776,225.860 C78.776,225.860 78.785,202.575 78.779,173.578 C92.584,181.161 109.773,187.438 124.326,183.619 C142.276,175.689 143.655,168.762 145.912,127.837 C146.505,113.099 136.652,88.555 130.744,81.692 C139.881,78.295 137.710,78.871 145.037,76.727 C145.276,70.142 143.545,67.087 142.120,64.169 C134.685,63.029 131.408,64.829 121.701,65.337 C111.235,57.435 107.138,45.563 120.826,39.928 C123.182,33.747 115.322,28.795 111.492,28.246 C100.403,31.853 84.048,53.032 80.280,53.363 C70.793,48.259 82.830,39.962 70.946,36.423 C66.301,37.612 70.792,36.311 63.362,37.884 C63.721,61.220 38.900,96.739 37.401,110.313 C33.401,129.715 46.428,150.174 57.236,159.086 C59.774,161.179 63.483,163.997 67.972,166.998 C67.972,198.528 67.972,225.204 67.972,225.204 L1.515,225.204 L1.515,1.496 L88.106,1.496 C126.082,1.496 155.816,10.129 177.316,27.391 C202.851,48.041 215.619,76.066 215.619,111.466 C215.619,145.337 204.705,172.980 182.881,194.393 C161.054,215.809 132.956,226.515 98.582,226.515 Z" />
</svg>